<?xml version="1.0" encoding="UTF-8" standalone="no"?>
<!DOCTYPE svg PUBLIC "-//W3C//DTD SVG 1.1//EN"
 "http://www.w3.org/Graphics/SVG/1.1/DTD/svg11.dtd">
<!-- Generated by graphviz version 2.44.1 (20200629.0846)
 -->
<!-- Pages: 1 -->
<svg width="332pt" height="202pt"
 viewBox="0.00 0.00 332.00 202.40" xmlns="http://www.w3.org/2000/svg" xmlns:xlink="http://www.w3.org/1999/xlink">
<g id="graph0" class="graph" transform="scale(1 1) rotate(0) translate(4 198.4)">
<polygon fill="white" stroke="transparent" points="-4,4 -4,-198.4 328,-198.4 328,4 -4,4"/>
<!-- details&#45;v1 -->
<g id="node1" class="node">
<title>details&#45;v1</title>
<polygon fill="none" stroke="black" points="144,-187.55 90,-187.55 90,-151.55 144,-151.55 144,-187.55"/>
</g>
<!-- External -->
<g id="node5" class="node">
<title>External</title>
<ellipse fill="none" stroke="black" cx="207" cy="-169.55" rx="27" ry="18"/>
</g>
<!-- details&#45;v1&#45;&gt;External -->
<g id="edge1" class="edge">
<title>details&#45;v1&#45;&gt;External</title>
<path fill="none" stroke="#d95f0e" stroke-dasharray="5,2" d="M144.4,-169.55C152.39,-169.55 161.31,-169.55 169.82,-169.55"/>
<polygon fill="#d95f0e" stroke="#d95f0e" points="169.92,-173.05 179.92,-169.55 169.92,-166.05 169.92,-173.05"/>
</g>
<!-- productpage&#45;v1 -->
<g id="node2" class="node">
<title>productpage&#45;v1</title>
<polygon fill="none" stroke="black" points="54,-112.55 0,-112.55 0,-76.55 54,-76.55 54,-112.55"/>
</g>
<!-- productpage&#45;v1&#45;&gt;details&#45;v1 -->
<g id="edge2" class="edge">
<title>productpage&#45;v1&#45;&gt;details&#45;v1</title>
<path fill="none" stroke="black" d="M49.3,-112.7C60.57,-122.31 74.57,-134.24 86.83,-144.69"/>
<polygon fill="black" stroke="black" points="84.71,-147.48 94.59,-151.3 89.25,-142.15 84.71,-147.48"/>
</g>
<!-- reviews&#45;v1 -->
<g id="node3" class="node">
<title>reviews&#45;v1</title>
<polygon fill="none" stroke="black" points="144,-112.55 90,-112.55 90,-76.55 144,-76.55 144,-112.55"/>
</g>
<!-- productpage&#45;v1&#45;&gt;reviews&#45;v1 -->
<g id="edge3" class="edge">
<title>productpage&#45;v1&#45;&gt;reviews&#45;v1</title>
<path fill="none" stroke="black" d="M54.4,-94.55C62.39,-94.55 71.31,-94.55 79.82,-94.55"/>
<polygon fill="black" stroke="black" points="79.92,-98.05 89.92,-94.55 79.92,-91.05 79.92,-98.05"/>
</g>
<!-- ratings&#45;v1 -->
<g id="node4" class="node">
<title>ratings&#45;v1</title>
<polygon fill="none" stroke="black" points="234,-80.55 180,-80.55 180,-44.55 234,-44.55 234,-80.55"/>
</g>
<!-- productpage&#45;v1&#45;&gt;ratings&#45;v1 -->
<g id="edge4" class="edge">
<title>productpage&#45;v1&#45;&gt;ratings&#45;v1</title>
<path fill="none" stroke="black" d="M54.12,-80.63C64.92,-75.55 77.76,-70.37 90,-67.55 116.23,-61.49 146.66,-60.39 169.77,-60.73"/>
<polygon fill="black" stroke="black" points="169.75,-64.23 179.83,-60.97 169.92,-57.23 169.75,-64.23"/>
</g>
<!-- reviews&#45;v1&#45;&gt;ratings&#45;v1 -->
<g id="edge5" class="edge">
<title>reviews&#45;v1&#45;&gt;ratings&#45;v1</title>
<path fill="none" stroke="black" d="M144.4,-84.95C152.57,-81.98 161.7,-78.66 170.38,-75.5"/>
<polygon fill="black" stroke="black" points="171.72,-78.74 179.92,-72.03 169.32,-72.16 171.72,-78.74"/>
</g>
<!-- mysqldb -->
<g id="node6" class="node">
<title>mysqldb</title>
<polygon fill="none" stroke="black" points="324,-117.55 270,-117.55 270,-81.55 324,-81.55 324,-117.55"/>
</g>
<!-- ratings&#45;v1&#45;&gt;mysqldb -->
<g id="edge6" class="edge">
<title>ratings&#45;v1&#45;&gt;mysqldb</title>
<path fill="none" stroke="#08519c" d="M234.4,-73.65C242.66,-77.12 251.9,-81.01 260.66,-84.69"/>
<polygon fill="#08519c" stroke="#08519c" points="259.34,-87.93 269.92,-88.58 262.06,-81.48 259.34,-87.93"/>
</g>
<!-- mongodb -->
<g id="node7" class="node">
<title>mongodb</title>
<polygon fill="none" stroke="black" points="324,-42.55 270,-42.55 270,-6.55 324,-6.55 324,-42.55"/>
</g>
<!-- ratings&#45;v1&#45;&gt;mongodb -->
<g id="edge7" class="edge">
<title>ratings&#45;v1&#45;&gt;mongodb</title>
<path fill="none" stroke="#08519c" d="M234.4,-51.15C242.66,-47.58 251.9,-43.59 260.66,-39.81"/>
<polygon fill="#08519c" stroke="#08519c" points="262.13,-42.99 269.92,-35.81 259.35,-36.56 262.13,-42.99"/>
</g>
</g>
</svg>
