<?xml version="1.0" encoding="UTF-8" standalone="no"?>
<!DOCTYPE svg PUBLIC "-//W3C//DTD SVG 1.1//EN"
 "http://www.w3.org/Graphics/SVG/1.1/DTD/svg11.dtd">
<!-- Generated by graphviz version 2.44.1 (20200629.0846)
 -->
<!-- Pages: 1 -->
<svg width="605pt" height="366pt"
 viewBox="0.00 0.00 604.67 366.00" xmlns="http://www.w3.org/2000/svg" xmlns:xlink="http://www.w3.org/1999/xlink">
<g id="graph0" class="graph" transform="scale(1 1) rotate(0) translate(4 362)">
<polygon fill="white" stroke="transparent" points="-4,4 -4,-362 600.67,-362 600.67,4 -4,4"/>
<!-- frontend&#45;v1 -->
<g id="node1" class="node">
<title>frontend&#45;v1</title>
<polygon fill="none" stroke="black" points="76.67,-238 22.67,-238 22.67,-202 76.67,-202 76.67,-238"/>
</g>
<!-- cartservice&#45;v1 -->
<g id="node2" class="node">
<title>cartservice&#45;v1</title>
<polygon fill="none" stroke="black" points="408.67,-358 354.67,-358 354.67,-322 408.67,-322 408.67,-358"/>
</g>
<!-- frontend&#45;v1&#45;&gt;cartservice&#45;v1 -->
<g id="edge5" class="edge">
<title>frontend&#45;v1&#45;&gt;cartservice&#45;v1</title>
<path fill="none" stroke="black" d="M76.67,-217.73C104.27,-224.81 149.25,-243.45 188.67,-258 244.88,-278.75 311.41,-300.26 349.56,-317.63"/>
<polygon fill="black" stroke="black" points="348.09,-320.8 358.62,-321.95 351.11,-314.49 348.09,-320.8"/>
</g>
<!-- frontend&#45;v1&#45;&gt;cartservice&#45;v1 -->
<g id="edge6" class="edge">
<title>frontend&#45;v1&#45;&gt;cartservice&#45;v1</title>
<path fill="none" stroke="black" d="M76.67,-231.13C104.27,-242.81 149.25,-261.45 188.67,-276 242.53,-295.88 305.85,-316.46 344.62,-328.74"/>
<polygon fill="black" stroke="black" points="343.81,-332.15 354.4,-331.83 345.91,-325.48 343.81,-332.15"/>
</g>
<!-- frontend&#45;v1&#45;&gt;cartservice&#45;v1 -->
<g id="edge7" class="edge">
<title>frontend&#45;v1&#45;&gt;cartservice&#45;v1</title>
<path fill="none" stroke="black" d="M66.68,-238.2C92.27,-255.8 144.04,-277.52 188.67,-294 242.3,-313.8 305.31,-334.28 344.12,-341.96"/>
<polygon fill="black" stroke="black" points="343.94,-345.48 354.4,-343.78 345.16,-338.59 343.94,-345.48"/>
</g>
<!-- currencyservice&#45;v1 -->
<g id="node3" class="node">
<title>currencyservice&#45;v1</title>
<polygon fill="none" stroke="black" points="408.67,-304 354.67,-304 354.67,-268 408.67,-268 408.67,-304"/>
</g>
<!-- frontend&#45;v1&#45;&gt;currencyservice&#45;v1 -->
<g id="edge3" class="edge">
<title>frontend&#45;v1&#45;&gt;currencyservice&#45;v1</title>
<path fill="none" stroke="black" d="M76.84,-221.37C135.44,-229.44 277.33,-257.63 344.4,-274.33"/>
<polygon fill="black" stroke="black" points="343.94,-277.82 354.49,-276.9 345.67,-271.04 343.94,-277.82"/>
</g>
<!-- frontend&#45;v1&#45;&gt;currencyservice&#45;v1 -->
<g id="edge4" class="edge">
<title>frontend&#45;v1&#45;&gt;currencyservice&#45;v1</title>
<path fill="none" stroke="black" d="M76.84,-229.09C135.44,-244.47 277.33,-273.04 344.4,-283.16"/>
<polygon fill="black" stroke="black" points="344.1,-286.66 354.49,-284.63 345.1,-279.73 344.1,-286.66"/>
</g>
<!-- recommendationservice&#45;v1 -->
<g id="node4" class="node">
<title>recommendationservice&#45;v1</title>
<polygon fill="none" stroke="black" points="242.67,-146 188.67,-146 188.67,-110 242.67,-110 242.67,-146"/>
</g>
<!-- frontend&#45;v1&#45;&gt;recommendationservice&#45;v1 -->
<g id="edge8" class="edge">
<title>frontend&#45;v1&#45;&gt;recommendationservice&#45;v1</title>
<path fill="none" stroke="black" d="M77.02,-205.22C104.83,-189.61 148.83,-164.93 179.57,-147.69"/>
<polygon fill="black" stroke="black" points="181.64,-150.54 188.65,-142.59 178.22,-144.43 181.64,-150.54"/>
</g>
<!-- checkoutservice&#45;v1 -->
<g id="node5" class="node">
<title>checkoutservice&#45;v1</title>
<polygon fill="none" stroke="black" points="242.67,-238 188.67,-238 188.67,-202 242.67,-202 242.67,-238"/>
</g>
<!-- frontend&#45;v1&#45;&gt;checkoutservice&#45;v1 -->
<g id="edge10" class="edge">
<title>frontend&#45;v1&#45;&gt;checkoutservice&#45;v1</title>
<path fill="none" stroke="black" d="M77.02,-220C104.47,-220 147.69,-220 178.37,-220"/>
<polygon fill="black" stroke="black" points="178.65,-223.5 188.65,-220 178.65,-216.5 178.65,-223.5"/>
</g>
<!-- productcatalogservice&#45;v1 -->
<g id="node6" class="node">
<title>productcatalogservice&#45;v1</title>
<polygon fill="none" stroke="black" points="408.67,-88 354.67,-88 354.67,-52 408.67,-52 408.67,-88"/>
</g>
<!-- frontend&#45;v1&#45;&gt;productcatalogservice&#45;v1 -->
<g id="edge1" class="edge">
<title>frontend&#45;v1&#45;&gt;productcatalogservice&#45;v1</title>
<path fill="none" stroke="black" d="M61.24,-201.92C82.47,-172.89 133.03,-117.91 188.67,-92 239.24,-68.45 304.52,-62.38 344.45,-63.46"/>
<polygon fill="black" stroke="black" points="344.37,-66.96 354.52,-63.92 344.68,-59.97 344.37,-66.96"/>
</g>
<!-- frontend&#45;v1&#45;&gt;productcatalogservice&#45;v1 -->
<g id="edge2" class="edge">
<title>frontend&#45;v1&#45;&gt;productcatalogservice&#45;v1</title>
<path fill="none" stroke="black" d="M71.3,-201.89C96.11,-176.67 140.49,-132.44 188.67,-110 239.24,-86.45 304.52,-80.38 344.45,-76.62"/>
<polygon fill="black" stroke="black" points="344.89,-80.1 354.52,-75.66 344.23,-73.13 344.89,-80.1"/>
</g>
<!-- shippingservice&#45;v1 -->
<g id="node7" class="node">
<title>shippingservice&#45;v1</title>
<polygon fill="none" stroke="black" points="408.67,-142 354.67,-142 354.67,-106 408.67,-106 408.67,-142"/>
</g>
<!-- frontend&#45;v1&#45;&gt;shippingservice&#45;v1 -->
<g id="edge9" class="edge">
<title>frontend&#45;v1&#45;&gt;shippingservice&#45;v1</title>
<path fill="none" stroke="black" d="M76.84,-212.39C135.56,-195.3 277.91,-153.89 344.81,-134.43"/>
<polygon fill="black" stroke="black" points="345.87,-137.77 354.49,-131.61 343.91,-131.05 345.87,-137.77"/>
</g>
<!-- adservice&#45;v1 -->
<g id="node8" class="node">
<title>adservice&#45;v1</title>
<polygon fill="none" stroke="black" points="242.67,-36 188.67,-36 188.67,0 242.67,0 242.67,-36"/>
</g>
<!-- frontend&#45;v1&#45;&gt;adservice&#45;v1 -->
<g id="edge11" class="edge">
<title>frontend&#45;v1&#45;&gt;adservice&#45;v1</title>
<path fill="none" stroke="black" d="M65.51,-201.72C94.72,-165.74 159.75,-85.64 193.47,-44.1"/>
<polygon fill="black" stroke="black" points="196.39,-46.07 199.98,-36.1 190.95,-41.65 196.39,-46.07"/>
</g>
<!-- redis&#45;cart -->
<g id="node9" class="node">
<title>redis&#45;cart</title>
<polygon fill="none" stroke="black" points="573.67,-358 519.67,-358 519.67,-322 573.67,-322 573.67,-358"/>
</g>
<!-- cartservice&#45;v1&#45;&gt;redis&#45;cart -->
<g id="edge12" class="edge">
<title>cartservice&#45;v1&#45;&gt;redis&#45;cart</title>
<path fill="none" stroke="#08519c" d="M408.86,-340C436.06,-340 478.85,-340 509.32,-340"/>
<polygon fill="#08519c" stroke="#08519c" points="509.54,-343.5 519.54,-340 509.54,-336.5 509.54,-343.5"/>
</g>
<!-- External -->
<g id="node10" class="node">
<title>External</title>
<ellipse fill="none" stroke="black" cx="546.67" cy="-286" rx="27" ry="18"/>
</g>
<!-- currencyservice&#45;v1&#45;&gt;External -->
<g id="edge13" class="edge">
<title>currencyservice&#45;v1&#45;&gt;External</title>
<path fill="none" stroke="#d95f0e" stroke-dasharray="5,2" d="M408.86,-286C436.06,-286 478.85,-286 509.32,-286"/>
<polygon fill="#d95f0e" stroke="#d95f0e" points="509.54,-289.5 519.54,-286 509.54,-282.5 509.54,-289.5"/>
</g>
<!-- recommendationservice&#45;v1&#45;&gt;productcatalogservice&#45;v1 -->
<g id="edge14" class="edge">
<title>recommendationservice&#45;v1&#45;&gt;productcatalogservice&#45;v1</title>
<path fill="none" stroke="black" d="M243.02,-118.68C270.71,-108.89 314.45,-93.42 345.17,-82.55"/>
<polygon fill="black" stroke="black" points="346.39,-85.83 354.65,-79.2 344.06,-79.23 346.39,-85.83"/>
</g>
<!-- checkoutservice&#45;v1&#45;&gt;cartservice&#45;v1 -->
<g id="edge18" class="edge">
<title>checkoutservice&#45;v1&#45;&gt;cartservice&#45;v1</title>
<path fill="none" stroke="black" d="M243.02,-234.17C273.47,-254.28 323.32,-290.75 353.94,-315.3"/>
<polygon fill="black" stroke="black" points="352.07,-318.29 362.03,-321.89 356.49,-312.86 352.07,-318.29"/>
</g>
<!-- checkoutservice&#45;v1&#45;&gt;cartservice&#45;v1 -->
<g id="edge19" class="edge">
<title>checkoutservice&#45;v1&#45;&gt;cartservice&#45;v1</title>
<path fill="none" stroke="black" d="M235.48,-238.26C262.36,-260.49 312.22,-297.35 345.91,-320.21"/>
<polygon fill="black" stroke="black" points="344.28,-323.32 354.53,-325.98 348.17,-317.51 344.28,-323.32"/>
</g>
<!-- checkoutservice&#45;v1&#45;&gt;currencyservice&#45;v1 -->
<g id="edge17" class="edge">
<title>checkoutservice&#45;v1&#45;&gt;currencyservice&#45;v1</title>
<path fill="none" stroke="black" d="M243.02,-230.6C270.71,-241.75 314.45,-259.35 345.17,-271.72"/>
<polygon fill="black" stroke="black" points="344.07,-275.04 354.65,-275.53 346.68,-268.55 344.07,-275.04"/>
</g>
<!-- checkoutservice&#45;v1&#45;&gt;productcatalogservice&#45;v1 -->
<g id="edge16" class="edge">
<title>checkoutservice&#45;v1&#45;&gt;productcatalogservice&#45;v1</title>
<path fill="none" stroke="black" d="M236.45,-201.91C265.63,-175.22 320.32,-125.2 353.32,-95.01"/>
<polygon fill="black" stroke="black" points="355.8,-97.49 360.81,-88.16 351.07,-92.32 355.8,-97.49"/>
</g>
<!-- checkoutservice&#45;v1&#45;&gt;shippingservice&#45;v1 -->
<g id="edge21" class="edge">
<title>checkoutservice&#45;v1&#45;&gt;shippingservice&#45;v1</title>
<path fill="none" stroke="black" d="M239.47,-201.81C266.95,-183.49 313.41,-156.02 345.49,-138.93"/>
<polygon fill="black" stroke="black" points="347.3,-141.94 354.54,-134.2 344.06,-135.73 347.3,-141.94"/>
</g>
<!-- checkoutservice&#45;v1&#45;&gt;shippingservice&#45;v1 -->
<g id="edge22" class="edge">
<title>checkoutservice&#45;v1&#45;&gt;shippingservice&#45;v1</title>
<path fill="none" stroke="black" d="M243.02,-209.69C272.02,-194.78 318.63,-167.61 349.45,-147.71"/>
<polygon fill="black" stroke="black" points="351.63,-150.46 358.08,-142.05 347.8,-144.61 351.63,-150.46"/>
</g>
<!-- paymentservice&#45;v1 -->
<g id="node11" class="node">
<title>paymentservice&#45;v1</title>
<polygon fill="none" stroke="black" points="408.67,-250 354.67,-250 354.67,-214 408.67,-214 408.67,-250"/>
</g>
<!-- checkoutservice&#45;v1&#45;&gt;paymentservice&#45;v1 -->
<g id="edge15" class="edge">
<title>checkoutservice&#45;v1&#45;&gt;paymentservice&#45;v1</title>
<path fill="none" stroke="black" d="M243.02,-221.93C270.47,-223.94 313.69,-227.1 344.37,-229.34"/>
<polygon fill="black" stroke="black" points="344.42,-232.86 354.65,-230.1 344.94,-225.88 344.42,-232.86"/>
</g>
<!-- emailservice&#45;v1 -->
<g id="node12" class="node">
<title>emailservice&#45;v1</title>
<polygon fill="none" stroke="black" points="408.67,-196 354.67,-196 354.67,-160 408.67,-160 408.67,-196"/>
</g>
<!-- checkoutservice&#45;v1&#45;&gt;emailservice&#45;v1 -->
<g id="edge20" class="edge">
<title>checkoutservice&#45;v1&#45;&gt;emailservice&#45;v1</title>
<path fill="none" stroke="black" d="M243.02,-213.25C270.59,-206.19 314.07,-195.06 344.77,-187.19"/>
<polygon fill="black" stroke="black" points="345.83,-190.53 354.65,-184.66 344.1,-183.75 345.83,-190.53"/>
</g>
</g>
</svg>
