<?xml version="1.0" encoding="UTF-8" standalone="no"?>
<!DOCTYPE svg PUBLIC "-//W3C//DTD SVG 1.1//EN"
 "http://www.w3.org/Graphics/SVG/1.1/DTD/svg11.dtd">
<!-- Generated by graphviz version 2.44.1 (20200629.0846)
 -->
<!-- Pages: 1 -->
<svg width="698pt" height="436pt"
 viewBox="0.00 0.00 698.00 436.21" xmlns="http://www.w3.org/2000/svg" xmlns:xlink="http://www.w3.org/1999/xlink">
<g id="graph0" class="graph" transform="scale(1 1) rotate(0) translate(4 432.21)">
<polygon fill="white" stroke="transparent" points="-4,4 -4,-432.21 694,-432.21 694,4 -4,4"/>
<!-- workshopmanagementeventhandler&#45;v1 -->
<g id="node1" class="node">
<title>workshopmanagementeventhandler&#45;v1</title>
<polygon fill="none" stroke="black" points="372,-252 318,-252 318,-216 372,-216 372,-252"/>
</g>
<!-- logserver&#45;v1 -->
<g id="node10" class="node">
<title>logserver&#45;v1</title>
<polygon fill="none" stroke="black" points="637,-306 583,-306 583,-270 637,-270 637,-306"/>
</g>
<!-- workshopmanagementeventhandler&#45;v1&#45;&gt;logserver&#45;v1 -->
<g id="edge1" class="edge">
<title>workshopmanagementeventhandler&#45;v1&#45;&gt;logserver&#45;v1</title>
<path fill="none" stroke="black" d="M372.18,-239.38C419.44,-249.08 519.08,-269.54 572.82,-280.57"/>
<polygon fill="black" stroke="black" points="572.43,-284.06 582.93,-282.65 573.84,-277.21 572.43,-284.06"/>
</g>
<!-- rabbitmq -->
<g id="node11" class="node">
<title>rabbitmq</title>
<polygon fill="none" stroke="black" points="637,-252 583,-252 583,-216 637,-216 637,-252"/>
</g>
<!-- workshopmanagementeventhandler&#45;v1&#45;&gt;rabbitmq -->
<g id="edge2" class="edge">
<title>workshopmanagementeventhandler&#45;v1&#45;&gt;rabbitmq</title>
<path fill="none" stroke="#08519c" d="M372.18,-234C419.44,-234 519.08,-234 572.82,-234"/>
<polygon fill="#08519c" stroke="#08519c" points="572.93,-237.5 582.93,-234 572.93,-230.5 572.93,-237.5"/>
</g>
<!-- sqlserver -->
<g id="node12" class="node">
<title>sqlserver</title>
<polygon fill="none" stroke="black" points="637,-144 583,-144 583,-108 637,-108 637,-144"/>
</g>
<!-- workshopmanagementeventhandler&#45;v1&#45;&gt;sqlserver -->
<g id="edge3" class="edge">
<title>workshopmanagementeventhandler&#45;v1&#45;&gt;sqlserver</title>
<path fill="none" stroke="#08519c" d="M372.18,-223.25C419.64,-203.76 519.91,-162.58 573.49,-140.58"/>
<polygon fill="#08519c" stroke="#08519c" points="575.01,-143.74 582.93,-136.71 572.35,-137.27 575.01,-143.74"/>
</g>
<!-- workshopmanagementapi&#45;v1 -->
<g id="node2" class="node">
<title>workshopmanagementapi&#45;v1</title>
<polygon fill="none" stroke="black" points="372,-306 318,-306 318,-270 372,-270 372,-306"/>
</g>
<!-- workshopmanagementapi&#45;v1&#45;&gt;logserver&#45;v1 -->
<g id="edge4" class="edge">
<title>workshopmanagementapi&#45;v1&#45;&gt;logserver&#45;v1</title>
<path fill="none" stroke="black" d="M372.18,-288C419.44,-288 519.08,-288 572.82,-288"/>
<polygon fill="black" stroke="black" points="572.93,-291.5 582.93,-288 572.93,-284.5 572.93,-291.5"/>
</g>
<!-- workshopmanagementapi&#45;v1&#45;&gt;rabbitmq -->
<g id="edge5" class="edge">
<title>workshopmanagementapi&#45;v1&#45;&gt;rabbitmq</title>
<path fill="none" stroke="#08519c" d="M372.18,-282.62C419.44,-272.92 519.08,-252.46 572.82,-241.43"/>
<polygon fill="#08519c" stroke="#08519c" points="573.84,-244.79 582.93,-239.35 572.43,-237.94 573.84,-244.79"/>
</g>
<!-- workshopmanagementapi&#45;v1&#45;&gt;sqlserver -->
<g id="edge6" class="edge">
<title>workshopmanagementapi&#45;v1&#45;&gt;sqlserver</title>
<path fill="none" stroke="#08519c" d="M372.18,-271.87C419.83,-242.52 520.74,-180.36 574.15,-147.46"/>
<polygon fill="#08519c" stroke="#08519c" points="576.25,-150.28 582.93,-142.06 572.58,-144.32 576.25,-150.28"/>
</g>
<!-- auditlogservice&#45;v1 -->
<g id="node3" class="node">
<title>auditlogservice&#45;v1</title>
<polygon fill="none" stroke="black" points="372,-360 318,-360 318,-324 372,-324 372,-360"/>
</g>
<!-- auditlogservice&#45;v1&#45;&gt;logserver&#45;v1 -->
<g id="edge7" class="edge">
<title>auditlogservice&#45;v1&#45;&gt;logserver&#45;v1</title>
<path fill="none" stroke="black" d="M372.18,-336.62C419.44,-326.92 519.08,-306.46 572.82,-295.43"/>
<polygon fill="black" stroke="black" points="573.84,-298.79 582.93,-293.35 572.43,-291.94 573.84,-298.79"/>
</g>
<!-- auditlogservice&#45;v1&#45;&gt;rabbitmq -->
<g id="edge8" class="edge">
<title>auditlogservice&#45;v1&#45;&gt;rabbitmq</title>
<path fill="none" stroke="#08519c" d="M372.18,-331.25C419.64,-311.76 519.91,-270.58 573.49,-248.58"/>
<polygon fill="#08519c" stroke="#08519c" points="575.01,-251.74 582.93,-244.71 572.35,-245.27 575.01,-251.74"/>
</g>
<!-- vehiclemanagementapi&#45;v1 -->
<g id="node4" class="node">
<title>vehiclemanagementapi&#45;v1</title>
<polygon fill="none" stroke="black" points="372,-90 318,-90 318,-54 372,-54 372,-90"/>
</g>
<!-- vehiclemanagementapi&#45;v1&#45;&gt;rabbitmq -->
<g id="edge9" class="edge">
<title>vehiclemanagementapi&#45;v1&#45;&gt;rabbitmq</title>
<path fill="none" stroke="#08519c" d="M372.18,-88.13C419.83,-117.48 520.74,-179.64 574.15,-212.54"/>
<polygon fill="#08519c" stroke="#08519c" points="572.58,-215.68 582.93,-217.94 576.25,-209.72 572.58,-215.68"/>
</g>
<!-- vehiclemanagementapi&#45;v1&#45;&gt;sqlserver -->
<g id="edge10" class="edge">
<title>vehiclemanagementapi&#45;v1&#45;&gt;sqlserver</title>
<path fill="none" stroke="#08519c" d="M372.18,-77.38C419.44,-87.08 519.08,-107.54 572.82,-118.57"/>
<polygon fill="#08519c" stroke="#08519c" points="572.43,-122.06 582.93,-120.65 573.84,-115.21 572.43,-122.06"/>
</g>
<!-- notificationservice&#45;v1 -->
<g id="node5" class="node">
<title>notificationservice&#45;v1</title>
<polygon fill="none" stroke="black" points="372,-198 318,-198 318,-162 372,-162 372,-198"/>
</g>
<!-- notificationservice&#45;v1&#45;&gt;logserver&#45;v1 -->
<g id="edge11" class="edge">
<title>notificationservice&#45;v1&#45;&gt;logserver&#45;v1</title>
<path fill="none" stroke="black" d="M372.18,-190.75C419.64,-210.24 519.91,-251.42 573.49,-273.42"/>
<polygon fill="black" stroke="black" points="572.35,-276.73 582.93,-277.29 575.01,-270.26 572.35,-276.73"/>
</g>
<!-- notificationservice&#45;v1&#45;&gt;rabbitmq -->
<g id="edge12" class="edge">
<title>notificationservice&#45;v1&#45;&gt;rabbitmq</title>
<path fill="none" stroke="#08519c" d="M372.18,-185.38C419.44,-195.08 519.08,-215.54 572.82,-226.57"/>
<polygon fill="#08519c" stroke="#08519c" points="572.43,-230.06 582.93,-228.65 573.84,-223.21 572.43,-230.06"/>
</g>
<!-- notificationservice&#45;v1&#45;&gt;sqlserver -->
<g id="edge13" class="edge">
<title>notificationservice&#45;v1&#45;&gt;sqlserver</title>
<path fill="none" stroke="#08519c" d="M372.18,-174.62C419.44,-164.92 519.08,-144.46 572.82,-133.43"/>
<polygon fill="#08519c" stroke="#08519c" points="573.84,-136.79 582.93,-131.35 572.43,-129.94 573.84,-136.79"/>
</g>
<!-- mailserver -->
<g id="node13" class="node">
<title>mailserver</title>
<polygon fill="none" stroke="black" points="637,-198 583,-198 583,-162 637,-162 637,-198"/>
</g>
<!-- notificationservice&#45;v1&#45;&gt;mailserver -->
<g id="edge14" class="edge">
<title>notificationservice&#45;v1&#45;&gt;mailserver</title>
<path fill="none" stroke="#08519c" d="M372.18,-180C419.44,-180 519.08,-180 572.82,-180"/>
<polygon fill="#08519c" stroke="#08519c" points="572.93,-183.5 582.93,-180 572.93,-176.5 572.93,-183.5"/>
</g>
<!-- customermanagementapi&#45;v1 -->
<g id="node6" class="node">
<title>customermanagementapi&#45;v1</title>
<polygon fill="none" stroke="black" points="372,-36 318,-36 318,0 372,0 372,-36"/>
</g>
<!-- customermanagementapi&#45;v1&#45;&gt;rabbitmq -->
<g id="edge15" class="edge">
<title>customermanagementapi&#45;v1&#45;&gt;rabbitmq</title>
<path fill="none" stroke="#08519c" d="M367.97,-36.04C415.06,-74.72 525.75,-165.63 579.15,-209.49"/>
<polygon fill="#08519c" stroke="#08519c" points="576.96,-212.21 586.91,-215.85 581.4,-206.8 576.96,-212.21"/>
</g>
<!-- customermanagementapi&#45;v1&#45;&gt;sqlserver -->
<g id="edge16" class="edge">
<title>customermanagementapi&#45;v1&#45;&gt;sqlserver</title>
<path fill="none" stroke="#08519c" d="M372.18,-28.75C419.64,-48.24 519.91,-89.42 573.49,-111.42"/>
<polygon fill="#08519c" stroke="#08519c" points="572.35,-114.73 582.93,-115.29 575.01,-108.26 572.35,-114.73"/>
</g>
<!-- webapp&#45;v1 -->
<g id="node7" class="node">
<title>webapp&#45;v1</title>
<polygon fill="none" stroke="black" points="107,-306 53,-306 53,-270 107,-270 107,-306"/>
</g>
<!-- webapp&#45;v1&#45;&gt;workshopmanagementapi&#45;v1 -->
<g id="edge24" class="edge">
<title>webapp&#45;v1&#45;&gt;workshopmanagementapi&#45;v1</title>
<path fill="none" stroke="black" d="M87.24,-269.99C121.07,-224.65 282.64,-222.15 330.57,-262.48"/>
<polygon fill="black" stroke="black" points="328.25,-265.12 337.7,-269.91 333.3,-260.28 328.25,-265.12"/>
</g>
<!-- webapp&#45;v1&#45;&gt;workshopmanagementapi&#45;v1 -->
<g id="edge25" class="edge">
<title>webapp&#45;v1&#45;&gt;workshopmanagementapi&#45;v1</title>
<path fill="none" stroke="black" d="M92.98,-269.81C134.32,-241.76 271.29,-240.16 323.52,-265.02"/>
<polygon fill="black" stroke="black" points="321.82,-268.08 332.25,-269.97 325.28,-261.99 321.82,-268.08"/>
</g>
<!-- webapp&#45;v1&#45;&gt;workshopmanagementapi&#45;v1 -->
<g id="edge26" class="edge">
<title>webapp&#45;v1&#45;&gt;workshopmanagementapi&#45;v1</title>
<path fill="none" stroke="black" d="M107.18,-271.03C154.54,-258.46 254.5,-257.71 308.16,-268.77"/>
<polygon fill="black" stroke="black" points="307.39,-272.18 317.93,-271.05 308.99,-265.37 307.39,-272.18"/>
</g>
<!-- webapp&#45;v1&#45;&gt;workshopmanagementapi&#45;v1 -->
<g id="edge27" class="edge">
<title>webapp&#45;v1&#45;&gt;workshopmanagementapi&#45;v1</title>
<path fill="none" stroke="black" d="M107.18,-279.51C154.44,-273.24 254.08,-272.85 307.82,-278.35"/>
<polygon fill="black" stroke="black" points="307.59,-281.85 317.93,-279.53 308.4,-274.89 307.59,-281.85"/>
</g>
<!-- webapp&#45;v1&#45;&gt;workshopmanagementapi&#45;v1 -->
<g id="edge28" class="edge">
<title>webapp&#45;v1&#45;&gt;workshopmanagementapi&#45;v1</title>
<path fill="none" stroke="black" d="M107.18,-288C154.44,-288 254.08,-288 307.82,-288"/>
<polygon fill="black" stroke="black" points="307.93,-291.5 317.93,-288 307.93,-284.5 307.93,-291.5"/>
</g>
<!-- webapp&#45;v1&#45;&gt;workshopmanagementapi&#45;v1 -->
<g id="edge29" class="edge">
<title>webapp&#45;v1&#45;&gt;workshopmanagementapi&#45;v1</title>
<path fill="none" stroke="black" d="M107.18,-296.49C154.44,-302.76 254.08,-303.15 307.82,-297.65"/>
<polygon fill="black" stroke="black" points="308.4,-301.11 317.93,-296.47 307.59,-294.15 308.4,-301.11"/>
</g>
<!-- webapp&#45;v1&#45;&gt;workshopmanagementapi&#45;v1 -->
<g id="edge30" class="edge">
<title>webapp&#45;v1&#45;&gt;workshopmanagementapi&#45;v1</title>
<path fill="none" stroke="black" d="M107.18,-304.97C154.54,-317.54 254.5,-318.29 308.16,-307.23"/>
<polygon fill="black" stroke="black" points="308.99,-310.63 317.93,-304.95 307.39,-303.82 308.99,-310.63"/>
</g>
<!-- webapp&#45;v1&#45;&gt;workshopmanagementapi&#45;v1 -->
<g id="edge31" class="edge">
<title>webapp&#45;v1&#45;&gt;workshopmanagementapi&#45;v1</title>
<path fill="none" stroke="black" d="M92.98,-306.19C134.32,-334.24 271.29,-335.84 323.52,-310.98"/>
<polygon fill="black" stroke="black" points="325.28,-314.01 332.25,-306.03 321.82,-307.92 325.28,-314.01"/>
</g>
<!-- webapp&#45;v1&#45;&gt;workshopmanagementapi&#45;v1 -->
<g id="edge32" class="edge">
<title>webapp&#45;v1&#45;&gt;workshopmanagementapi&#45;v1</title>
<path fill="none" stroke="black" d="M87.24,-306.01C121.07,-351.35 282.64,-353.85 330.57,-313.52"/>
<polygon fill="black" stroke="black" points="333.3,-315.72 337.7,-306.09 328.25,-310.88 333.3,-315.72"/>
</g>
<!-- webapp&#45;v1&#45;&gt;vehiclemanagementapi&#45;v1 -->
<g id="edge21" class="edge">
<title>webapp&#45;v1&#45;&gt;vehiclemanagementapi&#45;v1</title>
<path fill="none" stroke="black" d="M95.14,-269.86C135.33,-228.68 251.07,-132.63 309.45,-90.89"/>
<polygon fill="black" stroke="black" points="311.8,-93.52 317.97,-84.91 307.78,-87.79 311.8,-93.52"/>
</g>
<!-- webapp&#45;v1&#45;&gt;vehiclemanagementapi&#45;v1 -->
<g id="edge22" class="edge">
<title>webapp&#45;v1&#45;&gt;vehiclemanagementapi&#45;v1</title>
<path fill="none" stroke="black" d="M102.97,-269.96C150.06,-231.28 260.75,-140.37 314.15,-96.51"/>
<polygon fill="black" stroke="black" points="316.4,-99.2 321.91,-90.15 311.96,-93.79 316.4,-99.2"/>
</g>
<!-- webapp&#45;v1&#45;&gt;vehiclemanagementapi&#45;v1 -->
<g id="edge23" class="edge">
<title>webapp&#45;v1&#45;&gt;vehiclemanagementapi&#45;v1</title>
<path fill="none" stroke="black" d="M107.18,-274.99C159.12,-239.22 274.31,-144.4 322.33,-97.64"/>
<polygon fill="black" stroke="black" points="325.09,-99.84 329.7,-90.3 320.15,-94.88 325.09,-99.84"/>
</g>
<!-- webapp&#45;v1&#45;&gt;customermanagementapi&#45;v1 -->
<g id="edge18" class="edge">
<title>webapp&#45;v1&#45;&gt;customermanagementapi&#45;v1</title>
<path fill="none" stroke="black" d="M92.98,-269.63C131.26,-221.68 251.51,-97.13 310.58,-42.95"/>
<polygon fill="black" stroke="black" points="313.09,-45.4 318.16,-36.09 308.4,-40.21 313.09,-45.4"/>
</g>
<!-- webapp&#45;v1&#45;&gt;customermanagementapi&#45;v1 -->
<g id="edge19" class="edge">
<title>webapp&#45;v1&#45;&gt;customermanagementapi&#45;v1</title>
<path fill="none" stroke="black" d="M98.66,-269.87C144.33,-222.98 266.4,-97.67 319.15,-43.51"/>
<polygon fill="black" stroke="black" points="321.94,-45.66 326.41,-36.06 316.93,-40.78 321.94,-45.66"/>
</g>
<!-- webapp&#45;v1&#45;&gt;customermanagementapi&#45;v1 -->
<g id="edge20" class="edge">
<title>webapp&#45;v1&#45;&gt;customermanagementapi&#45;v1</title>
<path fill="none" stroke="black" d="M107.18,-269.61C160.44,-222 280.24,-98.61 325.88,-43.88"/>
<polygon fill="black" stroke="black" points="328.68,-45.97 332.3,-36.01 323.26,-41.54 328.68,-45.97"/>
</g>
<!-- webapp&#45;v1&#45;&gt;logserver&#45;v1 -->
<g id="edge17" class="edge">
<title>webapp&#45;v1&#45;&gt;logserver&#45;v1</title>
<path fill="none" stroke="black" d="M98.55,-306.05C142.6,-349.09 262.17,-452.09 372,-423 453.11,-401.52 535.48,-345.1 578.5,-312.4"/>
<polygon fill="black" stroke="black" points="580.78,-315.06 586.57,-306.19 576.51,-309.52 580.78,-315.06"/>
</g>
<!-- timeservice&#45;v1 -->
<g id="node8" class="node">
<title>timeservice&#45;v1</title>
<polygon fill="none" stroke="black" points="372,-414 318,-414 318,-378 372,-378 372,-414"/>
</g>
<!-- timeservice&#45;v1&#45;&gt;logserver&#45;v1 -->
<g id="edge33" class="edge">
<title>timeservice&#45;v1&#45;&gt;logserver&#45;v1</title>
<path fill="none" stroke="black" d="M372.18,-385.25C419.64,-365.76 519.91,-324.58 573.49,-302.58"/>
<polygon fill="black" stroke="black" points="575.01,-305.74 582.93,-298.71 572.35,-299.27 575.01,-305.74"/>
</g>
<!-- timeservice&#45;v1&#45;&gt;rabbitmq -->
<g id="edge34" class="edge">
<title>timeservice&#45;v1&#45;&gt;rabbitmq</title>
<path fill="none" stroke="#08519c" d="M372.18,-379.87C419.83,-350.52 520.74,-288.36 574.15,-255.46"/>
<polygon fill="#08519c" stroke="#08519c" points="576.25,-258.28 582.93,-250.06 572.58,-252.32 576.25,-258.28"/>
</g>
<!-- invoiceservice&#45;v1 -->
<g id="node9" class="node">
<title>invoiceservice&#45;v1</title>
<polygon fill="none" stroke="black" points="372,-144 318,-144 318,-108 372,-108 372,-144"/>
</g>
<!-- invoiceservice&#45;v1&#45;&gt;logserver&#45;v1 -->
<g id="edge35" class="edge">
<title>invoiceservice&#45;v1&#45;&gt;logserver&#45;v1</title>
<path fill="none" stroke="black" d="M372.18,-142.13C419.83,-171.48 520.74,-233.64 574.15,-266.54"/>
<polygon fill="black" stroke="black" points="572.58,-269.68 582.93,-271.94 576.25,-263.72 572.58,-269.68"/>
</g>
<!-- invoiceservice&#45;v1&#45;&gt;rabbitmq -->
<g id="edge36" class="edge">
<title>invoiceservice&#45;v1&#45;&gt;rabbitmq</title>
<path fill="none" stroke="#08519c" d="M372.18,-136.75C419.64,-156.24 519.91,-197.42 573.49,-219.42"/>
<polygon fill="#08519c" stroke="#08519c" points="572.35,-222.73 582.93,-223.29 575.01,-216.26 572.35,-222.73"/>
</g>
<!-- invoiceservice&#45;v1&#45;&gt;sqlserver -->
<g id="edge37" class="edge">
<title>invoiceservice&#45;v1&#45;&gt;sqlserver</title>
<path fill="none" stroke="#08519c" d="M372.18,-126C419.44,-126 519.08,-126 572.82,-126"/>
<polygon fill="#08519c" stroke="#08519c" points="572.93,-129.5 582.93,-126 572.93,-122.5 572.93,-129.5"/>
</g>
<!-- invoiceservice&#45;v1&#45;&gt;mailserver -->
<g id="edge38" class="edge">
<title>invoiceservice&#45;v1&#45;&gt;mailserver</title>
<path fill="none" stroke="#08519c" d="M372.18,-131.38C419.44,-141.08 519.08,-161.54 572.82,-172.57"/>
<polygon fill="#08519c" stroke="#08519c" points="572.43,-176.06 582.93,-174.65 573.84,-169.21 572.43,-176.06"/>
</g>
</g>
</svg>
