<?xml version="1.0" encoding="UTF-8" standalone="no"?>
<!DOCTYPE svg PUBLIC "-//W3C//DTD SVG 1.1//EN"
 "http://www.w3.org/Graphics/SVG/1.1/DTD/svg11.dtd">
<!-- Generated by graphviz version 2.44.1 (20200629.0846)
 -->
<!-- Pages: 1 -->
<svg width="608pt" height="368pt"
 viewBox="0.00 0.00 608.00 368.00" xmlns="http://www.w3.org/2000/svg" xmlns:xlink="http://www.w3.org/1999/xlink">
<g id="graph0" class="graph" transform="scale(1 1) rotate(0) translate(4 364)">
<polygon fill="white" stroke="transparent" points="-4,4 -4,-364 604,-364 604,4 -4,4"/>
<!-- queue&#45;master&#45;v1 -->
<g id="node1" class="node">
<title>queue&#45;master&#45;v1</title>
<polygon fill="none" stroke="black" points="410,-360 356,-360 356,-324 410,-324 410,-360"/>
</g>
<!-- rabbitmq -->
<g id="node8" class="node">
<title>rabbitmq</title>
<polygon fill="none" stroke="black" points="577,-333 523,-333 523,-297 577,-297 577,-333"/>
</g>
<!-- queue&#45;master&#45;v1&#45;&gt;rabbitmq -->
<g id="edge1" class="edge">
<title>queue&#45;master&#45;v1&#45;&gt;rabbitmq</title>
<path fill="none" stroke="#08519c" d="M410.14,-337.72C437.9,-333.18 481.96,-325.97 513,-320.89"/>
<polygon fill="#08519c" stroke="#08519c" points="513.67,-324.33 522.98,-319.26 512.54,-317.42 513.67,-324.33"/>
</g>
<!-- orders&#45;v1 -->
<g id="node2" class="node">
<title>orders&#45;v1</title>
<polygon fill="none" stroke="black" points="244,-198 190,-198 190,-162 244,-162 244,-198"/>
</g>
<!-- shipping&#45;v1 -->
<g id="node7" class="node">
<title>shipping&#45;v1</title>
<polygon fill="none" stroke="black" points="410,-306 356,-306 356,-270 410,-270 410,-306"/>
</g>
<!-- orders&#45;v1&#45;&gt;shipping&#45;v1 -->
<g id="edge3" class="edge">
<title>orders&#45;v1&#45;&gt;shipping&#45;v1</title>
<path fill="none" stroke="black" d="M244.35,-197.35C272.29,-215.75 316.54,-244.89 347.3,-265.15"/>
<polygon fill="black" stroke="black" points="345.71,-268.29 355.99,-270.87 349.56,-262.45 345.71,-268.29"/>
</g>
<!-- payment&#45;v1 -->
<g id="node9" class="node">
<title>payment&#45;v1</title>
<polygon fill="none" stroke="black" points="410,-252 356,-252 356,-216 410,-216 410,-252"/>
</g>
<!-- orders&#45;v1&#45;&gt;payment&#45;v1 -->
<g id="edge2" class="edge">
<title>orders&#45;v1&#45;&gt;payment&#45;v1</title>
<path fill="none" stroke="black" d="M244.35,-188.68C271.93,-197.76 315.4,-212.07 346.11,-222.18"/>
<polygon fill="black" stroke="black" points="345.39,-225.63 355.99,-225.43 347.58,-218.98 345.39,-225.63"/>
</g>
<!-- orders&#45;db -->
<g id="node10" class="node">
<title>orders&#45;db</title>
<polygon fill="none" stroke="black" points="410,-198 356,-198 356,-162 410,-162 410,-198"/>
</g>
<!-- orders&#45;v1&#45;&gt;orders&#45;db -->
<g id="edge4" class="edge">
<title>orders&#45;v1&#45;&gt;orders&#45;db</title>
<path fill="none" stroke="#08519c" d="M244.35,-180C271.81,-180 315.03,-180 345.7,-180"/>
<polygon fill="#08519c" stroke="#08519c" points="345.99,-183.5 355.99,-180 345.99,-176.5 345.99,-183.5"/>
</g>
<!-- user&#45;v1 -->
<g id="node3" class="node">
<title>user&#45;v1</title>
<polygon fill="none" stroke="black" points="244,-144 190,-144 190,-108 244,-108 244,-144"/>
</g>
<!-- user&#45;db -->
<g id="node11" class="node">
<title>user&#45;db</title>
<polygon fill="none" stroke="black" points="410,-144 356,-144 356,-108 410,-108 410,-144"/>
</g>
<!-- user&#45;v1&#45;&gt;user&#45;db -->
<g id="edge5" class="edge">
<title>user&#45;v1&#45;&gt;user&#45;db</title>
<path fill="none" stroke="#08519c" d="M244.35,-126C271.81,-126 315.03,-126 345.7,-126"/>
<polygon fill="#08519c" stroke="#08519c" points="345.99,-129.5 355.99,-126 345.99,-122.5 345.99,-129.5"/>
</g>
<!-- carts&#45;v1 -->
<g id="node4" class="node">
<title>carts&#45;v1</title>
<polygon fill="none" stroke="black" points="244,-90 190,-90 190,-54 244,-54 244,-90"/>
</g>
<!-- carts&#45;db -->
<g id="node12" class="node">
<title>carts&#45;db</title>
<polygon fill="none" stroke="black" points="410,-90 356,-90 356,-54 410,-54 410,-90"/>
</g>
<!-- carts&#45;v1&#45;&gt;carts&#45;db -->
<g id="edge6" class="edge">
<title>carts&#45;v1&#45;&gt;carts&#45;db</title>
<path fill="none" stroke="#08519c" d="M244.35,-72C271.81,-72 315.03,-72 345.7,-72"/>
<polygon fill="#08519c" stroke="#08519c" points="345.99,-75.5 355.99,-72 345.99,-68.5 345.99,-75.5"/>
</g>
<!-- front&#45;end&#45;v1 -->
<g id="node5" class="node">
<title>front&#45;end&#45;v1</title>
<polygon fill="none" stroke="black" points="77,-144 23,-144 23,-108 77,-108 77,-144"/>
</g>
<!-- front&#45;end&#45;v1&#45;&gt;orders&#45;v1 -->
<g id="edge16" class="edge">
<title>front&#45;end&#45;v1&#45;&gt;orders&#45;v1</title>
<path fill="none" stroke="black" d="M77.14,-124.38C105.56,-129.6 151.05,-144.16 182.16,-157.78"/>
<polygon fill="black" stroke="black" points="180.77,-160.99 191.33,-161.96 183.68,-154.63 180.77,-160.99"/>
</g>
<!-- front&#45;end&#45;v1&#45;&gt;orders&#45;v1 -->
<g id="edge17" class="edge">
<title>front&#45;end&#45;v1&#45;&gt;orders&#45;v1</title>
<path fill="none" stroke="black" d="M77.14,-134.56C105.02,-143.68 149.35,-158.19 180.4,-168.35"/>
<polygon fill="black" stroke="black" points="179.38,-171.7 189.98,-171.48 181.56,-165.05 179.38,-171.7"/>
</g>
<!-- front&#45;end&#45;v1&#45;&gt;orders&#45;v1 -->
<g id="edge19" class="edge">
<title>front&#45;end&#45;v1&#45;&gt;orders&#45;v1</title>
<path fill="none" stroke="black" d="M75.7,-144.05C103.24,-157.23 148.06,-172.38 179.61,-179.51"/>
<polygon fill="black" stroke="black" points="179.26,-183.01 189.76,-181.6 180.68,-176.15 179.26,-183.01"/>
</g>
<!-- front&#45;end&#45;v1&#45;&gt;user&#45;v1 -->
<g id="edge18" class="edge">
<title>front&#45;end&#45;v1&#45;&gt;user&#45;v1</title>
<path fill="none" stroke="black" d="M52.23,-107.78C66.03,-9.57 191.4,-6.19 212.88,-97.65"/>
<polygon fill="black" stroke="black" points="209.48,-98.52 214.76,-107.71 216.36,-97.24 209.48,-98.52"/>
</g>
<!-- front&#45;end&#45;v1&#45;&gt;user&#45;v1 -->
<g id="edge20" class="edge">
<title>front&#45;end&#45;v1&#45;&gt;user&#45;v1</title>
<path fill="none" stroke="black" d="M52.69,-107.85C68.3,-27.5 187.6,-24.19 211.75,-97.93"/>
<polygon fill="black" stroke="black" points="208.41,-99.01 214.31,-107.81 215.19,-97.26 208.41,-99.01"/>
</g>
<!-- front&#45;end&#45;v1&#45;&gt;user&#45;v1 -->
<g id="edge21" class="edge">
<title>front&#45;end&#45;v1&#45;&gt;user&#45;v1</title>
<path fill="none" stroke="black" d="M53.46,-107.9C71.42,-45.39 182.41,-42.21 209.86,-98.33"/>
<polygon fill="black" stroke="black" points="206.67,-99.77 213.53,-107.85 213.2,-97.26 206.67,-99.77"/>
</g>
<!-- front&#45;end&#45;v1&#45;&gt;user&#45;v1 -->
<g id="edge22" class="edge">
<title>front&#45;end&#45;v1&#45;&gt;user&#45;v1</title>
<path fill="none" stroke="black" d="M54.92,-107.99C75.87,-63.21 175,-60.22 206.42,-99"/>
<polygon fill="black" stroke="black" points="203.75,-101.33 212.05,-107.91 209.67,-97.59 203.75,-101.33"/>
</g>
<!-- front&#45;end&#45;v1&#45;&gt;user&#45;v1 -->
<g id="edge23" class="edge">
<title>front&#45;end&#45;v1&#45;&gt;user&#45;v1</title>
<path fill="none" stroke="black" d="M58.52,-107.81C83.75,-80.52 165.77,-78.27 200.37,-101.05"/>
<polygon fill="black" stroke="black" points="198.51,-104.06 208.44,-107.76 202.99,-98.68 198.51,-104.06"/>
</g>
<!-- front&#45;end&#45;v1&#45;&gt;user&#45;v1 -->
<g id="edge24" class="edge">
<title>front&#45;end&#45;v1&#45;&gt;user&#45;v1</title>
<path fill="none" stroke="black" d="M70.25,-107.9C99.06,-97.13 153.6,-96.13 187.18,-104.91"/>
<polygon fill="black" stroke="black" points="186.28,-108.3 196.87,-107.95 188.38,-101.62 186.28,-108.3"/>
</g>
<!-- front&#45;end&#45;v1&#45;&gt;user&#45;v1 -->
<g id="edge25" class="edge">
<title>front&#45;end&#45;v1&#45;&gt;user&#45;v1</title>
<path fill="none" stroke="black" d="M77.14,-115.82C104.9,-111.84 148.96,-111.44 180,-114.62"/>
<polygon fill="black" stroke="black" points="179.63,-118.1 189.98,-115.84 180.48,-111.15 179.63,-118.1"/>
</g>
<!-- front&#45;end&#45;v1&#45;&gt;user&#45;v1 -->
<g id="edge26" class="edge">
<title>front&#45;end&#45;v1&#45;&gt;user&#45;v1</title>
<path fill="none" stroke="black" d="M77.14,-126C104.78,-126 148.58,-126 179.59,-126"/>
<polygon fill="black" stroke="black" points="179.98,-129.5 189.98,-126 179.98,-122.5 179.98,-129.5"/>
</g>
<!-- front&#45;end&#45;v1&#45;&gt;user&#45;v1 -->
<g id="edge27" class="edge">
<title>front&#45;end&#45;v1&#45;&gt;user&#45;v1</title>
<path fill="none" stroke="black" d="M77.14,-136.18C104.9,-140.16 148.96,-140.56 180,-137.38"/>
<polygon fill="black" stroke="black" points="180.48,-140.85 189.98,-136.16 179.63,-133.9 180.48,-140.85"/>
</g>
<!-- front&#45;end&#45;v1&#45;&gt;user&#45;v1 -->
<g id="edge28" class="edge">
<title>front&#45;end&#45;v1&#45;&gt;user&#45;v1</title>
<path fill="none" stroke="black" d="M70.25,-144.1C99.06,-154.87 153.6,-155.87 187.18,-147.09"/>
<polygon fill="black" stroke="black" points="188.38,-150.38 196.87,-144.05 186.28,-143.7 188.38,-150.38"/>
</g>
<!-- front&#45;end&#45;v1&#45;&gt;user&#45;v1 -->
<g id="edge29" class="edge">
<title>front&#45;end&#45;v1&#45;&gt;user&#45;v1</title>
<path fill="none" stroke="black" d="M58.52,-144.19C83.75,-171.48 165.77,-173.73 200.37,-150.95"/>
<polygon fill="black" stroke="black" points="202.99,-153.32 208.44,-144.24 198.51,-147.94 202.99,-153.32"/>
</g>
<!-- front&#45;end&#45;v1&#45;&gt;user&#45;v1 -->
<g id="edge30" class="edge">
<title>front&#45;end&#45;v1&#45;&gt;user&#45;v1</title>
<path fill="none" stroke="black" d="M54.92,-144.01C75.87,-188.79 175,-191.78 206.42,-153"/>
<polygon fill="black" stroke="black" points="209.67,-154.41 212.05,-144.09 203.75,-150.67 209.67,-154.41"/>
</g>
<!-- front&#45;end&#45;v1&#45;&gt;user&#45;v1 -->
<g id="edge31" class="edge">
<title>front&#45;end&#45;v1&#45;&gt;user&#45;v1</title>
<path fill="none" stroke="black" d="M53.46,-144.1C71.42,-206.61 182.41,-209.79 209.86,-153.67"/>
<polygon fill="black" stroke="black" points="213.2,-154.74 213.53,-144.15 206.67,-152.23 213.2,-154.74"/>
</g>
<!-- front&#45;end&#45;v1&#45;&gt;user&#45;v1 -->
<g id="edge32" class="edge">
<title>front&#45;end&#45;v1&#45;&gt;user&#45;v1</title>
<path fill="none" stroke="black" d="M52.69,-144.15C68.3,-224.5 187.6,-227.81 211.75,-154.07"/>
<polygon fill="black" stroke="black" points="215.19,-154.74 214.31,-144.19 208.41,-152.99 215.19,-154.74"/>
</g>
<!-- front&#45;end&#45;v1&#45;&gt;user&#45;v1 -->
<g id="edge34" class="edge">
<title>front&#45;end&#45;v1&#45;&gt;user&#45;v1</title>
<path fill="none" stroke="black" d="M52.23,-144.22C66.03,-242.43 191.4,-245.81 212.88,-154.35"/>
<polygon fill="black" stroke="black" points="216.36,-154.76 214.76,-144.29 209.48,-153.48 216.36,-154.76"/>
</g>
<!-- front&#45;end&#45;v1&#45;&gt;carts&#45;v1 -->
<g id="edge7" class="edge">
<title>front&#45;end&#45;v1&#45;&gt;carts&#45;v1</title>
<path fill="none" stroke="black" d="M58.96,-107.85C80.41,-82.18 140.46,-58.21 179.78,-55.35"/>
<polygon fill="black" stroke="black" points="179.87,-58.85 189.78,-55.11 179.7,-51.86 179.87,-58.85"/>
</g>
<!-- front&#45;end&#45;v1&#45;&gt;carts&#45;v1 -->
<g id="edge8" class="edge">
<title>front&#45;end&#45;v1&#45;&gt;carts&#45;v1</title>
<path fill="none" stroke="black" d="M67.42,-107.89C93.43,-91.14 144.7,-72.89 179.67,-66.77"/>
<polygon fill="black" stroke="black" points="180.55,-70.18 189.95,-65.28 179.55,-63.25 180.55,-70.18"/>
</g>
<!-- front&#45;end&#45;v1&#45;&gt;carts&#45;v1 -->
<g id="edge9" class="edge">
<title>front&#45;end&#45;v1&#45;&gt;carts&#45;v1</title>
<path fill="none" stroke="black" d="M77.14,-112.35C104.9,-101.28 148.96,-86.66 180,-78.09"/>
<polygon fill="black" stroke="black" points="181.21,-81.39 189.98,-75.44 179.41,-74.63 181.21,-81.39"/>
</g>
<!-- front&#45;end&#45;v1&#45;&gt;carts&#45;v1 -->
<g id="edge10" class="edge">
<title>front&#45;end&#45;v1&#45;&gt;carts&#45;v1</title>
<path fill="none" stroke="black" d="M77.14,-122.53C105.02,-115.41 149.35,-101.1 180.4,-89.32"/>
<polygon fill="black" stroke="black" points="181.92,-92.48 189.98,-85.6 179.39,-85.96 181.92,-92.48"/>
</g>
<!-- front&#45;end&#45;v1&#45;&gt;carts&#45;v1 -->
<g id="edge12" class="edge">
<title>front&#45;end&#45;v1&#45;&gt;carts&#45;v1</title>
<path fill="none" stroke="black" d="M77.14,-132.71C108.27,-129.23 159.91,-112.27 190.67,-95.38"/>
<polygon fill="black" stroke="black" points="192.68,-98.26 199.5,-90.15 189.11,-92.23 192.68,-98.26"/>
</g>
<!-- front&#45;end&#45;v1&#45;&gt;carts&#45;v1 -->
<g id="edge33" class="edge">
<title>front&#45;end&#45;v1&#45;&gt;carts&#45;v1</title>
<path fill="none" stroke="black" d="M77.14,-142.89C112.03,-143.99 172.67,-122.51 200.83,-97.5"/>
<polygon fill="black" stroke="black" points="203.33,-99.95 207.86,-90.37 198.34,-95.03 203.33,-99.95"/>
</g>
<!-- catalogue&#45;v1 -->
<g id="node6" class="node">
<title>catalogue&#45;v1</title>
<polygon fill="none" stroke="black" points="244,-36 190,-36 190,0 244,0 244,-36"/>
</g>
<!-- front&#45;end&#45;v1&#45;&gt;catalogue&#45;v1 -->
<g id="edge11" class="edge">
<title>front&#45;end&#45;v1&#45;&gt;catalogue&#45;v1</title>
<path fill="none" stroke="black" d="M62.08,-107.96C86,-82.26 143.3,-42.7 180.84,-24.08"/>
<polygon fill="black" stroke="black" points="182.36,-27.23 189.93,-19.81 179.39,-20.89 182.36,-27.23"/>
</g>
<!-- front&#45;end&#45;v1&#45;&gt;catalogue&#45;v1 -->
<g id="edge13" class="edge">
<title>front&#45;end&#45;v1&#45;&gt;catalogue&#45;v1</title>
<path fill="none" stroke="black" d="M71.56,-107.9C98.89,-87.59 147.56,-55.4 180.79,-35.4"/>
<polygon fill="black" stroke="black" points="182.91,-38.21 189.72,-30.1 179.34,-32.19 182.91,-38.21"/>
</g>
<!-- front&#45;end&#45;v1&#45;&gt;catalogue&#45;v1 -->
<g id="edge14" class="edge">
<title>front&#45;end&#45;v1&#45;&gt;catalogue&#45;v1</title>
<path fill="none" stroke="black" d="M77.14,-113.98C107.05,-96.55 155.87,-64.66 186.94,-42.31"/>
<polygon fill="black" stroke="black" points="189.19,-45 195.2,-36.28 185.06,-39.35 189.19,-45"/>
</g>
<!-- front&#45;end&#45;v1&#45;&gt;catalogue&#45;v1 -->
<g id="edge15" class="edge">
<title>front&#45;end&#45;v1&#45;&gt;catalogue&#45;v1</title>
<path fill="none" stroke="black" d="M77.14,-124.15C110.68,-109.43 168.01,-71.28 197.41,-43.56"/>
<polygon fill="black" stroke="black" points="199.98,-45.94 204.58,-36.4 195.03,-40.98 199.98,-45.94"/>
</g>
<!-- catalogue&#45;db -->
<g id="node13" class="node">
<title>catalogue&#45;db</title>
<polygon fill="none" stroke="black" points="410,-36 356,-36 356,0 410,0 410,-36"/>
</g>
<!-- catalogue&#45;v1&#45;&gt;catalogue&#45;db -->
<g id="edge35" class="edge">
<title>catalogue&#45;v1&#45;&gt;catalogue&#45;db</title>
<path fill="none" stroke="#08519c" d="M244.35,-18C271.81,-18 315.03,-18 345.7,-18"/>
<polygon fill="#08519c" stroke="#08519c" points="345.99,-21.5 355.99,-18 345.99,-14.5 345.99,-21.5"/>
</g>
<!-- shipping&#45;v1&#45;&gt;rabbitmq -->
<g id="edge36" class="edge">
<title>shipping&#45;v1&#45;&gt;rabbitmq</title>
<path fill="none" stroke="#08519c" d="M410.14,-292.28C437.9,-296.82 481.96,-304.03 513,-309.11"/>
<polygon fill="#08519c" stroke="#08519c" points="512.54,-312.58 522.98,-310.74 513.67,-305.67 512.54,-312.58"/>
</g>
</g>
</svg>
